# xmcd
#
# Track frame offsets:
#	150
#	21163
#	42703
#	62698
#	81988
#	103468
#	122930
#	144163
#
# Disc length: 2205 seconds
#
# Revision: 2
# Processed by: cddbd v1.5.2PL0 Copyright (c) Steve Scherf et al.
# Submitted via: EasyCDDAExtractor 15.3.0.1
#
DISCID=74089b08
DTITLE=Sandra Torres - Rompo Las Cadenas
DYEAR=1994
DGENRE=Latin
TTITLE0=Pa Curar Mi Mal De Amores
TTITLE1=Vuelve Otra Vez
TTITLE2=Dime Que Mas Debo Hacer
TTITLE3=Medalla De Honor
TTITLE4=Rompo Las Cadenas
TTITLE5=Fuiste Tu
TTITLE6=En Blanco Y Negro
TTITLE7=Son Tus Ojos Asi
EXTD=
EXTT0=
EXTT1=
EXTT2=
EXTT3=
EXTT4=
EXTT5=
EXTT6=
EXTT7=
PLAYORDER=
